<?xml version="1.0" standalone="no"?><!-- Generator: Gravit.io --><svg xmlns="http://www.w3.org/2000/svg" xmlns:xlink="http://www.w3.org/1999/xlink" style="isolation:isolate" viewBox="0 0 16 16" width="16" height="16"><defs><clipPath id="_clipPath_pPMG4wsB47jKYdl7W7NVcW8nKKQgvna6"><rect width="16" height="16"/></clipPath></defs><g clip-path="url(#_clipPath_pPMG4wsB47jKYdl7W7NVcW8nKKQgvna6)"><linearGradient id="_lgradient_0" x1="0" y1="0.5" x2="1" y2="0.5"><stop offset="35.21739130434783%" style="stop-color:#FFC800"/><stop offset="76.08695652173914%" style="stop-color:rgba(153,131,102,0.99)"/></linearGradient><rect width="16" height="16" style="fill:url(#_lgradient_0);"/><g id="l3"><g id="Group"><g id="Layer0_0_MEMBER_0_FILL"><path d=" M 13.53 9.97 Q 13.53 9.843 13.438 9.751 L 6.237 2.562 Q 6.157 2.47 6.03 2.47 Q 5.903 2.47 5.811 2.562 Q 5.719 2.654 5.719 2.781 Q 5.719 2.908 5.811 3 L 13 10.189 Q 13.092 10.281 13.219 10.281 Q 13.346 10.281 13.438 10.189 Q 13.53 10.108 13.53 9.97 Z " fill="rgb(0,0,0)"/></g></g><g id="Group"><g id="Layer0_0_MEMBER_1_FILL"><path d=" M 14.187 9.313 Q 14.187 9.175 14.106 9.094 L 6.906 1.894 Q 6.813 1.813 6.687 1.813 Q 6.56 1.813 6.468 1.894 Q 6.376 1.986 6.376 2.113 Q 6.376 2.251 6.468 2.332 L 13.668 9.532 Q 13.76 9.624 13.887 9.624 Q 14.014 9.624 14.106 9.532 Q 14.187 9.44 14.187 9.313 Z " fill="rgb(0,0,0)"/></g></g><g id="Group"><g id="Layer0_0_MEMBER_2_FILL"><path d=" M 14.843 8.657 Q 14.843 8.53 14.751 8.438 L 7.562 1.237 Q 7.47 1.157 7.343 1.157 Q 7.217 1.157 7.124 1.237 Q 7.032 1.329 7.032 1.456 Q 7.032 1.594 7.124 1.675 L 14.313 8.876 Q 14.406 8.968 14.532 8.968 Q 14.671 8.968 14.751 8.876 Q 14.843 8.783 14.843 8.657 Z " fill="rgb(0,0,0)"/></g></g><g id="Group"><g id="Layer0_0_MEMBER_3_FILL"><path d=" M 15.5 8 Q 15.5 7.873 15.408 7.781 L 8.219 0.592 Q 8.127 0.5 8 0.5 Q 7.873 0.5 7.781 0.592 Q 7.689 0.684 7.689 0.811 Q 7.689 0.938 7.781 1.03 L 14.97 8.219 Q 15.062 8.311 15.189 8.311 Q 15.327 8.311 15.408 8.219 Q 15.5 8.127 15.5 8 Z " fill="rgb(0,0,0)"/></g></g><g id="Group"><g id="Layer0_0_MEMBER_4_FILL"><path d=" M 8 0.5 Q 7.873 0.5 7.781 0.592 L 0.581 7.781 Q 0.5 7.873 0.5 8 Q 0.5 8.127 0.581 8.219 Q 0.673 8.311 0.8 8.311 Q 0.938 8.311 1.018 8.219 L 8.219 1.03 Q 8.311 0.938 8.311 0.811 Q 8.311 0.684 8.219 0.592 Q 8.127 0.5 8 0.5 Z " fill="rgb(0,0,0)"/></g></g><g id="Group"><g id="Layer0_0_MEMBER_5_FILL"><path d=" M 8.668 1.168 Q 8.541 1.168 8.449 1.249 L 1.249 8.449 Q 1.157 8.541 1.157 8.668 Q 1.157 8.795 1.249 8.887 Q 1.341 8.979 1.468 8.979 Q 1.594 8.979 1.687 8.887 L 8.876 1.687 Q 8.968 1.594 8.968 1.468 Q 8.968 1.341 8.876 1.249 Q 8.795 1.168 8.668 1.168 Z " fill="rgb(0,0,0)"/></g></g><g id="Group"><g id="Layer0_0_MEMBER_6_FILL"><path d=" M 9.313 1.813 Q 9.187 1.813 9.094 1.906 L 1.906 9.106 Q 1.813 9.198 1.813 9.325 Q 1.813 9.452 1.906 9.532 Q 1.998 9.624 2.124 9.624 Q 2.251 9.624 2.343 9.532 L 9.532 2.343 Q 9.624 2.251 9.624 2.124 Q 9.624 1.998 9.532 1.906 Q 9.452 1.813 9.313 1.813 Z " fill="rgb(0,0,0)"/></g></g><g id="Group"><g id="Layer0_0_MEMBER_7_FILL"><path d=" M 9.97 2.47 Q 9.843 2.47 9.751 2.562 L 2.562 9.751 Q 2.47 9.843 2.47 9.97 Q 2.47 10.108 2.562 10.189 Q 2.654 10.281 2.781 10.281 Q 2.908 10.281 3 10.189 L 10.189 3 Q 10.281 2.908 10.281 2.781 Q 10.281 2.654 10.189 2.562 Q 10.097 2.47 9.97 2.47 Z " fill="rgb(0,0,0)"/></g></g><g id="Group"><g id="Layer0_0_MEMBER_8_FILL"><path d=" M 13.219 5.719 Q 13.092 5.719 13 5.811 L 5.811 13 Q 5.719 13.092 5.719 13.219 Q 5.719 13.346 5.811 13.438 Q 5.903 13.53 6.03 13.53 Q 6.157 13.53 6.237 13.438 L 13.438 6.249 Q 13.53 6.157 13.53 6.03 Q 13.53 5.903 13.438 5.811 Q 13.346 5.719 13.219 5.719 Z " fill="rgb(0,0,0)"/></g></g><g id="Group"><g id="Layer0_0_MEMBER_9_FILL"><path d=" M 13.887 6.387 Q 13.76 6.387 13.668 6.468 L 6.468 13.668 Q 6.376 13.76 6.376 13.887 Q 6.376 14.014 6.468 14.106 Q 6.56 14.198 6.687 14.198 Q 6.813 14.198 6.906 14.106 L 14.106 6.906 Q 14.198 6.825 14.198 6.687 Q 14.198 6.56 14.106 6.468 Q 14.014 6.387 13.887 6.387 Z " fill="rgb(0,0,0)"/></g></g><g id="Group"><g id="Layer0_0_MEMBER_10_FILL"><path d=" M 14.532 7.044 Q 14.406 7.044 14.313 7.124 L 7.124 14.325 Q 7.032 14.417 7.032 14.544 Q 7.032 14.671 7.124 14.763 Q 7.217 14.843 7.343 14.843 Q 7.47 14.843 7.562 14.763 L 14.751 7.562 Q 14.843 7.47 14.843 7.343 Q 14.843 7.217 14.751 7.124 Q 14.671 7.044 14.532 7.044 Z " fill="rgb(0,0,0)"/></g></g><g id="Group"><g id="Layer0_0_MEMBER_11_FILL"><path d=" M 15.189 7.689 Q 15.062 7.689 14.97 7.781 L 7.781 14.982 Q 7.689 15.074 7.689 15.2 Q 7.689 15.327 7.781 15.408 Q 7.873 15.5 8 15.5 Q 8.127 15.5 8.219 15.408 L 15.408 8.219 Q 15.5 8.127 15.5 8 Q 15.5 7.873 15.408 7.781 Q 15.316 7.689 15.189 7.689 Z " fill="rgb(0,0,0)"/></g></g><g id="Group"><g id="Layer0_0_MEMBER_12_FILL"><path d=" M 2.781 5.719 Q 2.654 5.719 2.562 5.811 Q 2.47 5.903 2.47 6.03 Q 2.47 6.157 2.562 6.249 L 9.751 13.438 Q 9.843 13.53 9.97 13.53 Q 10.097 13.53 10.189 13.438 Q 10.281 13.346 10.281 13.219 Q 10.281 13.092 10.189 13 L 3 5.811 Q 2.908 5.719 2.781 5.719 Z " fill="rgb(0,0,0)"/></g></g><g id="Group"><g id="Layer0_0_MEMBER_13_FILL"><path d=" M 9.613 13.887 Q 9.613 13.76 9.521 13.668 L 2.332 6.468 Q 2.24 6.387 2.113 6.387 Q 1.986 6.387 1.894 6.468 Q 1.802 6.56 1.802 6.687 Q 1.802 6.825 1.894 6.906 L 9.094 14.106 Q 9.187 14.198 9.313 14.198 Q 9.44 14.198 9.521 14.106 Q 9.613 14.014 9.613 13.887 Z " fill="rgb(0,0,0)"/></g></g><g id="Group"><g id="Layer0_0_MEMBER_14_FILL"><path d=" M 8.968 14.544 Q 8.968 14.417 8.876 14.325 L 1.675 7.124 Q 1.583 7.044 1.456 7.044 Q 1.329 7.044 1.237 7.124 Q 1.157 7.217 1.157 7.343 Q 1.157 7.47 1.237 7.562 L 8.438 14.763 Q 8.53 14.855 8.657 14.855 Q 8.783 14.855 8.876 14.763 Q 8.968 14.671 8.968 14.544 Z " fill="rgb(0,0,0)"/></g></g><g id="Group"><g id="Layer0_0_MEMBER_15_FILL"><path d=" M 8.311 15.2 Q 8.311 15.074 8.219 14.982 L 1.018 7.781 Q 0.938 7.689 0.8 7.689 Q 0.673 7.689 0.581 7.781 Q 0.5 7.873 0.5 8 Q 0.5 8.127 0.581 8.219 L 7.781 15.408 Q 7.873 15.5 8 15.5 Q 8.127 15.5 8.219 15.408 Q 8.311 15.327 8.311 15.2 Z " fill="rgb(0,0,0)"/></g></g></g></g></svg>