<?xml version="1.0" standalone="no"?><!-- Generator: Gravit.io --><svg xmlns="http://www.w3.org/2000/svg" xmlns:xlink="http://www.w3.org/1999/xlink" style="isolation:isolate" viewBox="0 0 390 90" width="390" height="90"><defs><clipPath id="_clipPath_21EeXhJoOqrq1b1uZKl7gRbzD8yoGbin"><rect width="390" height="90"/></clipPath></defs><g clip-path="url(#_clipPath_21EeXhJoOqrq1b1uZKl7gRbzD8yoGbin)"><clipPath id="_clipPath_3EZaEfz8nCDREqsr3Q164xhCzWtmcsE8"><rect x="0" y="0" width="390" height="90" transform="matrix(1,0,0,1,0,0)" fill="rgb(255,255,255)"/></clipPath><g clip-path="url(#_clipPath_3EZaEfz8nCDREqsr3Q164xhCzWtmcsE8)"><g><rect x="0" y="0" width="390" height="90" transform="matrix(1,0,0,1,0,0)" fill="none"/><g><g style="opacity:0.47;"><g opacity="0.47"><path d=" M 29.7 0 L 360.3 0 C 376.692 0 390 13.308 390 29.7 L 390 60.3 C 390 76.692 376.692 90 360.3 90 L 29.7 90 C 13.308 90 0 76.692 0 60.3 L 0 29.7 C 0 13.308 13.308 0 29.7 0 Z " fill="rgb(107,110,113)"/></g></g></g><g><path d=" M 322.622 26.133 L 348.175 26.133 L 348.175 44.385 L 322.622 44.385 L 322.622 26.133 Z " fill="rgb(54,189,83)"/><path d=" M 322.622 29.783 L 348.175 29.783 L 348.175 33.434 L 322.622 33.434 L 322.622 29.783 Z " fill="rgb(43,153,67)"/><path d=" M 271.517 26.133 L 297.07 26.133 L 297.07 44.385 L 271.517 44.385 L 271.517 26.133 Z " fill="rgb(54,189,83)"/><path d=" M 271.517 29.783 L 297.07 29.783 L 297.07 33.434 L 271.517 33.434 L 271.517 29.783 Z " fill="rgb(43,153,67)"/><path d=" M 350 26.133 L 350 29.783 L 342.699 29.783 L 342.699 37.084 L 339.049 37.084 L 339.049 29.783 L 331.748 29.783 L 331.748 37.084 L 328.098 37.084 L 328.098 29.783 L 320.797 29.783 L 320.797 26.133 L 350 26.133 Z  M 320.797 46.21 L 350 46.21 L 350 42.56 L 320.797 42.56 L 320.797 46.21 Z  M 269.692 29.783 L 276.993 29.783 L 276.993 37.084 L 280.643 37.084 L 280.643 29.783 L 287.944 29.783 L 287.944 37.084 L 291.594 37.084 L 291.594 29.783 L 298.895 29.783 L 298.895 26.133 L 269.692 26.133 L 269.692 29.783 Z  M 269.692 46.21 L 298.895 46.21 L 298.895 42.56 L 269.692 42.56 L 269.692 46.21 Z " fill="rgb(55,71,79)"/><path d=" M 326.273 77.238 C 325.908 77.238 325.36 77.052 324.995 76.691 L 309.846 63.184 L 294.697 76.691 C 293.967 77.424 292.872 77.238 292.142 76.512 C 291.408 75.776 291.594 74.686 292.32 73.951 L 310.032 58.26 L 327.735 73.951 C 328.461 74.686 328.647 75.776 327.912 76.512 C 327.185 77.052 326.822 77.238 326.273 77.238 Z  M 337.224 46.21 L 333.573 46.21 L 333.573 77.238 L 337.224 77.238 L 337.224 46.21 Z  M 286.118 46.21 L 282.468 46.21 L 282.468 77.238 L 286.118 77.238 L 286.118 46.21 Z " fill="rgb(197,202,233)"/><path d=" M 337.224 26.133 L 333.573 26.133 L 333.573 13.357 L 337.224 13.357 L 337.224 26.133 Z  M 286.118 13.357 L 282.468 13.357 L 282.468 26.133 L 286.118 26.133 L 286.118 13.357 Z " fill="rgb(159,168,218)"/><path d=" M 309.846 33.434 C 297.796 33.434 287.944 43.286 287.944 55.336 C 287.944 67.386 297.796 77.238 309.846 77.238 C 321.896 77.238 331.748 67.386 331.748 55.336 C 331.748 43.286 321.896 33.434 309.846 33.434 Z " fill="rgb(38,50,56)"/><path d=" M 309.846 37.084 C 299.807 37.084 291.594 45.297 291.594 55.336 C 291.594 65.374 299.807 73.588 309.846 73.588 C 319.884 73.588 328.098 65.374 328.098 55.336 C 328.098 45.297 319.884 37.084 309.846 37.084 Z " fill="rgb(84,110,122)"/><path d=" M 344.524 20.657 L 326.273 20.657 C 325.265 20.657 324.447 19.84 324.447 18.832 C 324.447 17.92 325.36 17.007 326.273 17.007 L 344.524 17.007 C 345.437 17.007 346.35 17.733 346.35 18.832 C 346.35 19.931 345.437 20.657 344.524 20.657 Z  M 344.524 11.531 L 339.049 11.531 C 339.049 11.531 337.41 9.706 335.399 9.706 C 333.387 9.706 331.748 11.531 331.748 11.531 L 326.273 11.531 C 325.36 11.531 324.447 12.444 324.447 13.357 C 324.447 14.269 325.36 15.182 326.273 15.182 L 344.524 15.182 C 345.437 15.182 346.35 14.269 346.35 13.357 C 346.35 12.444 345.437 11.531 344.524 11.531 Z  M 294.146 15.368 L 287.758 12.807 C 287.58 12.444 286.845 10.434 285.02 9.892 C 283.195 9.157 281.192 10.069 281.006 10.256 L 275.897 8.064 C 274.985 7.693 273.893 8.064 273.53 9.155 C 273.158 10.068 273.53 11.166 274.62 11.53 L 292.872 18.83 C 293.058 18.83 293.237 19.016 293.607 19.016 C 294.334 19.016 295.06 18.644 295.246 17.918 C 295.432 16.819 295.06 15.727 294.147 15.366 L 294.146 15.368 Z " fill="rgb(255,193,7)"/></g><g filter="url(#1CktybseOAJUsmV7LLFLislMd62hcjRw)"><path d=" M 53.06 43.84 C 53.06 45.39 52.93 46.94 52.68 48.47 C 52.47 49.72 52.14 50.95 51.68 52.13 C 51.28 53.17 50.77 54.16 50.16 55.09 C 49.59 55.98 48.91 56.79 48.15 57.53 C 47.39 58.28 46.54 58.94 45.62 59.51 C 44.64 60.11 43.61 60.61 42.53 61 C 41.33 61.43 40.1 61.75 38.85 61.95 C 37.31 62.18 35.76 62.3 34.2 62.3 L 23.71 62.3 L 23.71 26.04 L 35.21 26.04 C 36.66 26.04 38.12 26.16 39.55 26.4 C 40.74 26.6 41.91 26.92 43.04 27.35 C 44.05 27.74 45.01 28.23 45.92 28.81 C 46.79 29.37 47.61 30.03 48.34 30.76 C 49.08 31.5 49.73 32.31 50.29 33.18 C 50.88 34.09 51.37 35.05 51.75 36.06 C 52.19 37.18 52.51 38.35 52.7 39.54 C 52.94 40.96 53.06 42.4 53.06 43.84 Z  M 51.06 43.84 C 51.06 45.28 50.94 46.72 50.71 48.15 C 50.52 49.26 50.22 50.35 49.81 51.41 C 49.46 52.32 49.02 53.18 48.49 54 C 47.99 54.76 47.41 55.47 46.76 56.1 C 46.1 56.75 45.36 57.32 44.57 57.81 C 43.71 58.34 42.8 58.78 41.85 59.12 C 40.77 59.51 39.67 59.79 38.54 59.97 C 37.11 60.19 35.66 60.3 34.2 60.3 L 25.71 60.3 L 25.71 28.04 L 35.21 28.04 C 36.55 28.04 37.9 28.15 39.22 28.37 C 40.28 28.55 41.32 28.83 42.33 29.22 C 43.2 29.56 44.05 29.98 44.84 30.49 C 45.59 30.98 46.29 31.54 46.93 32.18 C 47.56 32.81 48.13 33.51 48.61 34.27 C 49.12 35.06 49.55 35.9 49.89 36.78 C 50.27 37.77 50.56 38.81 50.73 39.87 C 50.95 41.18 51.06 42.51 51.06 43.84 Z  M 46.84 43.98 C 46.84 42.84 46.75 41.69 46.58 40.56 C 46.44 39.7 46.22 38.85 45.92 38.04 C 45.67 37.36 45.35 36.71 44.97 36.1 C 44.63 35.55 44.22 35.04 43.77 34.59 C 43.29 34.1 42.76 33.68 42.18 33.32 C 41.54 32.92 40.85 32.59 40.13 32.33 C 39.35 32.06 38.54 31.85 37.72 31.73 C 36.65 31.57 35.57 31.48 34.48 31.48 L 29.7 31.48 L 29.7 56.86 L 33.55 56.86 C 34.76 56.86 35.98 56.77 37.18 56.58 C 38.09 56.44 38.99 56.22 39.85 55.9 C 40.58 55.64 41.28 55.3 41.94 54.9 C 42.53 54.54 43.07 54.12 43.56 53.64 C 44.07 53.14 44.52 52.59 44.9 51.99 C 45.32 51.32 45.67 50.61 45.94 49.87 C 46.23 49.06 46.45 48.21 46.58 47.35 C 46.76 46.24 46.84 45.11 46.84 43.98 Z  M 48.84 43.98 C 48.84 42.73 48.75 41.48 48.55 40.25 C 48.4 39.26 48.14 38.28 47.79 37.34 C 47.5 36.54 47.12 35.77 46.66 35.04 C 46.24 34.37 45.75 33.74 45.19 33.18 C 44.6 32.59 43.95 32.06 43.24 31.62 C 42.47 31.15 41.65 30.75 40.8 30.45 C 39.9 30.13 38.97 29.89 38.02 29.75 C 36.85 29.57 35.67 29.48 34.48 29.48 L 27.7 29.48 L 27.7 58.86 L 33.55 58.86 C 34.86 58.86 36.18 58.76 37.48 58.56 C 38.52 58.4 39.54 58.14 40.53 57.78 C 41.39 57.47 42.21 57.08 42.99 56.6 C 43.7 56.17 44.36 55.65 44.96 55.07 C 45.58 54.46 46.12 53.79 46.59 53.05 C 47.09 52.27 47.5 51.43 47.81 50.56 C 48.16 49.62 48.41 48.65 48.56 47.66 C 48.75 46.44 48.84 45.21 48.84 43.98 Z  M 65.54 37.79 C 65.64 37.66 65.75 37.54 65.87 37.41 C 66.45 36.75 67.12 36.17 67.85 35.68 C 68.58 35.18 69.39 34.8 70.23 34.54 C 71.08 34.28 71.95 34.15 72.84 34.15 C 73.43 34.15 74.03 34.18 74.63 34.23 C 75.13 34.28 75.62 34.35 76.11 34.45 C 76.36 34.5 76.58 34.65 76.73 34.86 C 76.87 35.07 76.93 35.32 76.9 35.58 L 76.36 39.19 C 76.32 39.46 76.16 39.71 75.93 39.86 C 75.71 40.02 75.42 40.08 75.15 40.02 C 74.65 39.91 74.15 39.82 73.64 39.76 C 73.28 39.71 72.92 39.69 72.55 39.69 C 72.12 39.69 71.69 39.73 71.27 39.82 C 70.88 39.91 70.5 40.04 70.13 40.2 C 69.75 40.38 69.39 40.6 69.06 40.86 C 68.67 41.16 68.3 41.5 67.98 41.88 C 67.66 42.24 67.38 42.62 67.14 43.03 C 66.9 43.44 66.69 43.87 66.53 44.31 C 66.36 44.79 66.23 45.28 66.15 45.77 C 66.06 46.35 66.01 46.94 66.01 47.52 L 66.01 62.3 L 60.12 62.3 L 60.12 34.62 L 65.24 34.62 L 65.54 37.79 Z  M 72.84 36.15 C 73.37 36.15 73.91 36.17 74.45 36.22 C 74.56 36.23 74.66 36.24 74.77 36.26 L 74.53 37.86 C 74.32 37.83 74.1 37.8 73.89 37.77 C 73.45 37.72 73 37.69 72.55 37.69 C 71.98 37.69 71.41 37.75 70.85 37.87 C 70.31 37.98 69.79 38.16 69.29 38.39 C 68.78 38.63 68.29 38.92 67.84 39.27 C 67.34 39.66 66.88 40.09 66.47 40.56 C 66.07 41.01 65.72 41.5 65.42 42.02 C 65.11 42.53 64.86 43.07 64.65 43.63 C 64.44 44.22 64.28 44.83 64.18 45.45 C 64.06 46.13 64.01 46.83 64.01 47.52 L 64.01 60.3 L 62.12 60.3 L 62.12 36.62 L 63.42 36.62 L 63.86 41.38 L 64.96 41.38 C 65.32 41.38 65.65 41.18 65.83 40.87 C 66.26 40.11 66.78 39.39 67.36 38.74 C 67.83 38.21 68.37 37.74 68.97 37.34 C 69.54 36.95 70.16 36.65 70.82 36.45 C 71.47 36.25 72.15 36.15 72.84 36.15 Z  M 88.07 55.66 C 88.2 55.89 88.35 56.1 88.53 56.29 C 88.7 56.48 88.9 56.64 89.12 56.78 C 89.37 56.94 89.65 57.08 89.94 57.18 C 90.25 57.29 90.57 57.37 90.9 57.41 C 91.35 57.48 91.81 57.52 92.27 57.52 C 92.92 57.52 93.57 57.46 94.21 57.35 C 94.67 57.28 95.12 57.15 95.56 56.97 C 95.93 56.82 96.28 56.63 96.61 56.4 C 96.91 56.19 97.17 55.94 97.4 55.67 C 97.67 55.36 97.89 55.01 98.06 54.65 C 98.3 54.12 98.5 53.58 98.63 53.01 C 98.76 52.48 98.86 51.93 98.91 51.39 C 98.99 50.63 99.03 49.87 99.03 49.12 L 99.03 34.62 L 104.92 34.62 L 104.92 62.3 L 99.86 62.3 L 99.48 59.99 C 99.39 60.09 99.29 60.18 99.18 60.27 C 98.54 60.83 97.82 61.3 97.05 61.67 C 96.28 62.03 95.47 62.31 94.64 62.48 C 93.7 62.67 92.74 62.77 91.78 62.77 C 90.93 62.77 90.07 62.71 89.22 62.59 C 88.54 62.49 87.87 62.34 87.22 62.12 C 86.61 61.91 86.02 61.65 85.47 61.32 C 84.96 61.03 84.49 60.67 84.07 60.27 C 83.62 59.84 83.23 59.36 82.91 58.82 C 82.56 58.23 82.27 57.59 82.05 56.93 C 81.84 56.29 81.69 55.63 81.6 54.96 C 81.49 54.12 81.43 53.27 81.43 52.42 L 81.43 34.62 L 87.37 34.62 L 87.37 52.28 C 87.37 52.76 87.4 53.25 87.46 53.73 C 87.51 54.08 87.58 54.42 87.69 54.76 C 87.79 55.07 87.92 55.37 88.07 55.66 Z  M 83.43 36.62 L 85.37 36.62 L 85.37 52.28 C 85.37 52.85 85.4 53.42 85.48 53.99 C 85.54 54.45 85.64 54.91 85.78 55.35 C 85.92 55.79 86.1 56.22 86.33 56.63 C 86.53 57 86.78 57.34 87.06 57.65 C 87.35 57.96 87.68 58.24 88.04 58.46 C 88.43 58.71 88.84 58.91 89.28 59.06 C 89.71 59.22 90.15 59.33 90.61 59.39 C 91.16 59.47 91.72 59.52 92.27 59.52 C 93.03 59.52 93.79 59.45 94.54 59.33 C 95.15 59.22 95.74 59.06 96.31 58.83 C 96.82 58.62 97.32 58.35 97.77 58.03 C 98.2 57.72 98.59 57.36 98.93 56.96 C 99.31 56.51 99.62 56.02 99.87 55.5 C 100.17 54.85 100.41 54.18 100.58 53.49 C 100.73 52.86 100.84 52.23 100.9 51.59 C 100.99 50.77 101.03 49.94 101.03 49.12 L 101.03 36.62 L 102.92 36.62 L 102.92 60.3 L 101.56 60.3 L 101 56.86 L 99.94 56.86 C 99.59 56.86 99.27 57.04 99.09 57.33 C 98.75 57.86 98.34 58.34 97.87 58.76 C 97.36 59.2 96.8 59.57 96.19 59.86 C 95.57 60.16 94.91 60.38 94.23 60.52 C 93.43 60.69 92.61 60.77 91.78 60.77 C 91.02 60.77 90.26 60.72 89.51 60.61 C 88.94 60.53 88.39 60.4 87.85 60.22 C 87.37 60.06 86.91 59.85 86.48 59.6 C 86.11 59.38 85.76 59.12 85.45 58.82 C 85.13 58.52 84.86 58.17 84.63 57.79 C 84.35 57.33 84.12 56.83 83.95 56.32 C 83.78 55.79 83.66 55.24 83.58 54.69 C 83.48 53.94 83.43 53.18 83.43 52.42 L 83.43 36.62 Z  M 118.59 36.94 C 118.65 36.88 118.72 36.82 118.79 36.75 C 119.39 36.19 120.06 35.7 120.8 35.32 C 121.53 34.93 122.3 34.64 123.11 34.45 C 123.97 34.25 124.86 34.15 125.75 34.15 C 126.84 34.15 127.93 34.27 128.99 34.51 C 129.83 34.7 130.63 35.02 131.37 35.45 C 132.06 35.86 132.69 36.37 133.22 36.99 C 133.43 37.23 133.63 37.49 133.81 37.76 C 134.03 37.5 134.26 37.25 134.5 37.01 C 135.15 36.39 135.88 35.86 136.67 35.44 C 137.46 35.02 138.3 34.7 139.17 34.49 C 140.13 34.26 141.12 34.15 142.11 34.15 C 142.94 34.15 143.77 34.21 144.6 34.35 C 145.26 34.45 145.92 34.63 146.55 34.87 C 147.09 35.08 147.61 35.34 148.1 35.66 C 148.55 35.95 148.98 36.3 149.36 36.69 C 149.78 37.13 150.14 37.62 150.43 38.15 C 150.77 38.76 151.04 39.41 151.24 40.08 C 151.43 40.72 151.57 41.37 151.65 42.03 C 151.75 42.87 151.8 43.71 151.8 44.55 L 151.8 62.3 L 145.91 62.3 L 145.91 44.59 C 145.91 44.13 145.89 43.66 145.83 43.19 C 145.79 42.85 145.72 42.51 145.62 42.18 C 145.53 41.87 145.41 41.56 145.26 41.27 C 145.15 41.04 145.01 40.83 144.84 40.64 C 144.69 40.46 144.51 40.3 144.32 40.17 C 144.1 40.01 143.87 39.89 143.62 39.79 C 143.35 39.68 143.06 39.6 142.76 39.56 C 142.35 39.49 141.94 39.45 141.52 39.45 C 140.94 39.45 140.36 39.5 139.79 39.61 C 139.37 39.68 138.96 39.8 138.57 39.97 C 138.24 40.11 137.93 40.29 137.65 40.5 C 137.38 40.7 137.14 40.92 136.93 41.18 C 136.69 41.47 136.48 41.78 136.32 42.11 C 136.1 42.56 135.93 43.02 135.81 43.5 C 135.68 43.98 135.59 44.47 135.53 44.96 C 135.46 45.62 135.42 46.29 135.42 46.96 L 135.42 62.3 L 129.53 62.3 L 129.53 44.59 C 129.53 44.13 129.5 43.66 129.45 43.19 C 129.4 42.85 129.34 42.51 129.24 42.18 C 129.15 41.87 129.03 41.56 128.88 41.27 C 128.77 41.04 128.62 40.83 128.46 40.64 C 128.31 40.46 128.13 40.3 127.94 40.17 C 127.72 40.01 127.48 39.89 127.23 39.79 C 126.95 39.68 126.66 39.6 126.37 39.55 C 125.95 39.49 125.54 39.45 125.12 39.45 C 124.54 39.45 123.96 39.51 123.39 39.61 C 122.97 39.69 122.56 39.82 122.18 39.99 C 121.85 40.14 121.55 40.32 121.27 40.54 C 121 40.75 120.76 40.99 120.55 41.26 C 120.31 41.57 120.11 41.91 119.96 42.27 C 119.72 42.81 119.55 43.37 119.42 43.95 C 119.3 44.48 119.22 45.02 119.17 45.57 C 119.1 46.32 119.06 47.07 119.06 47.83 L 119.06 62.3 L 113.17 62.3 L 113.17 34.62 L 118.17 34.62 L 118.59 36.94 Z  M 149.8 60.3 L 147.91 60.3 L 147.91 44.59 C 147.91 44.04 147.88 43.5 147.81 42.95 C 147.76 42.51 147.67 42.06 147.55 41.63 C 147.42 41.19 147.25 40.76 147.04 40.36 C 146.86 39.99 146.63 39.65 146.36 39.34 C 146.1 39.03 145.8 38.76 145.47 38.53 C 145.12 38.28 144.75 38.08 144.36 37.93 C 143.95 37.77 143.52 37.65 143.09 37.58 C 142.57 37.5 142.05 37.45 141.52 37.45 C 140.82 37.45 140.12 37.52 139.43 37.64 C 138.87 37.74 138.31 37.91 137.78 38.13 C 137.31 38.33 136.87 38.59 136.46 38.89 C 136.06 39.18 135.7 39.52 135.39 39.9 C 135.05 40.31 134.76 40.76 134.52 41.24 C 134.25 41.8 134.03 42.39 133.87 42.99 C 133.72 43.56 133.61 44.15 133.55 44.74 C 133.46 45.47 133.42 46.22 133.42 46.96 L 133.42 60.3 L 131.53 60.3 L 131.53 44.59 C 131.53 44.04 131.5 43.5 131.43 42.95 C 131.38 42.51 131.29 42.06 131.16 41.63 C 131.04 41.19 130.87 40.76 130.66 40.36 C 130.47 39.99 130.24 39.65 129.98 39.34 C 129.71 39.03 129.41 38.76 129.08 38.52 C 128.73 38.28 128.35 38.08 127.95 37.93 C 127.55 37.77 127.12 37.65 126.69 37.58 C 126.17 37.5 125.64 37.45 125.12 37.45 C 124.41 37.45 123.71 37.52 123.02 37.65 C 122.45 37.75 121.89 37.93 121.36 38.17 C 120.89 38.38 120.45 38.64 120.04 38.96 C 119.64 39.27 119.28 39.63 118.97 40.03 C 118.63 40.48 118.34 40.97 118.12 41.49 C 117.84 42.14 117.62 42.82 117.47 43.52 C 117.33 44.13 117.23 44.76 117.18 45.39 C 117.1 46.2 117.06 47.01 117.06 47.83 L 117.06 60.3 L 115.17 60.3 L 115.17 36.62 L 116.5 36.62 L 117.13 40.13 L 118.16 40.13 C 118.51 40.13 118.84 39.94 119.02 39.64 C 119.33 39.11 119.71 38.63 120.16 38.21 C 120.63 37.77 121.16 37.39 121.73 37.09 C 122.31 36.78 122.92 36.55 123.56 36.4 C 124.28 36.23 125.01 36.15 125.75 36.15 C 126.69 36.15 127.63 36.25 128.55 36.46 C 129.19 36.61 129.8 36.85 130.36 37.18 C 130.87 37.47 131.32 37.85 131.7 38.29 C 132.12 38.77 132.46 39.32 132.7 39.9 C 132.86 40.27 133.22 40.51 133.62 40.51 L 133.81 40.51 C 134.17 40.51 134.5 40.31 134.68 40 C 135.01 39.43 135.41 38.91 135.89 38.46 C 136.4 37.96 136.98 37.54 137.61 37.2 C 138.25 36.86 138.93 36.6 139.63 36.44 C 140.44 36.25 141.27 36.15 142.11 36.15 C 142.84 36.15 143.56 36.21 144.28 36.32 C 144.81 36.41 145.33 36.55 145.83 36.74 C 146.24 36.9 146.64 37.1 147.01 37.34 C 147.34 37.55 147.65 37.8 147.92 38.08 C 148.22 38.39 148.48 38.74 148.68 39.12 C 148.95 39.6 149.17 40.12 149.32 40.65 C 149.48 41.18 149.59 41.73 149.66 42.28 C 149.76 43.03 149.8 43.79 149.8 44.55 L 149.8 60.3 Z  M 198.46 48.44 C 198.46 49.6 198.37 50.76 198.2 51.91 C 198.05 52.86 197.82 53.79 197.5 54.7 C 197.22 55.5 196.86 56.27 196.44 56.99 C 196.04 57.68 195.57 58.32 195.04 58.91 C 194.49 59.52 193.88 60.07 193.22 60.55 C 192.56 61.02 191.84 61.42 191.1 61.74 C 190.29 62.08 189.45 62.34 188.59 62.49 C 187.59 62.68 186.57 62.77 185.55 62.77 C 184.35 62.77 183.14 62.62 181.97 62.31 C 180.9 62.02 179.87 61.59 178.92 61.01 C 177.97 60.44 177.11 59.72 176.37 58.89 C 175.58 58 174.92 57.01 174.41 55.95 C 173.9 54.88 173.52 53.76 173.28 52.6 C 173 51.23 172.86 49.84 172.86 48.44 C 172.86 47.27 172.95 46.11 173.12 44.96 C 173.27 44.01 173.5 43.08 173.82 42.17 C 174.1 41.38 174.45 40.62 174.87 39.89 C 175.27 39.21 175.73 38.57 176.26 37.98 C 176.8 37.38 177.41 36.84 178.07 36.36 C 178.72 35.89 179.43 35.49 180.18 35.18 C 180.98 34.84 181.82 34.59 182.68 34.43 C 183.68 34.24 184.7 34.15 185.72 34.15 C 186.69 34.15 187.67 34.24 188.63 34.42 C 189.47 34.59 190.29 34.84 191.08 35.18 C 191.82 35.5 192.53 35.91 193.19 36.39 C 193.86 36.88 194.48 37.45 195.03 38.07 C 195.57 38.68 196.04 39.33 196.45 40.03 C 196.87 40.76 197.23 41.53 197.51 42.33 C 197.83 43.22 198.06 44.14 198.2 45.08 C 198.37 46.19 198.46 47.31 198.46 48.44 Z  M 196.46 48.44 C 196.46 49.5 196.38 50.56 196.22 51.6 C 196.09 52.43 195.89 53.25 195.61 54.04 C 195.37 54.72 195.07 55.37 194.71 55.99 C 194.38 56.56 193.99 57.09 193.55 57.58 C 193.1 58.08 192.6 58.53 192.05 58.92 C 191.51 59.31 190.93 59.64 190.31 59.9 C 189.64 60.18 188.94 60.4 188.22 60.53 C 187.34 60.69 186.45 60.77 185.55 60.77 C 184.52 60.77 183.49 60.64 182.49 60.37 C 181.6 60.14 180.74 59.78 179.96 59.3 C 179.17 58.83 178.47 58.24 177.86 57.56 C 177.2 56.81 176.65 55.98 176.21 55.08 C 175.77 54.16 175.45 53.2 175.24 52.2 C 174.99 50.96 174.86 49.7 174.86 48.44 C 174.86 47.38 174.94 46.31 175.1 45.26 C 175.22 44.44 175.43 43.62 175.7 42.83 C 175.94 42.16 176.24 41.51 176.6 40.89 C 176.93 40.33 177.31 39.8 177.74 39.32 C 178.19 38.82 178.69 38.38 179.23 37.99 C 179.77 37.6 180.35 37.28 180.96 37.02 C 181.63 36.74 182.33 36.53 183.05 36.39 C 183.93 36.23 184.82 36.15 185.72 36.15 C 186.57 36.15 187.42 36.23 188.25 36.39 C 188.95 36.52 189.63 36.73 190.28 37.02 C 190.89 37.28 191.47 37.61 192.01 38 C 192.56 38.41 193.08 38.88 193.54 39.4 C 193.98 39.9 194.38 40.45 194.72 41.03 C 195.08 41.66 195.38 42.31 195.62 42.99 C 195.9 43.77 196.1 44.57 196.23 45.39 C 196.38 46.4 196.46 47.42 196.46 48.44 Z  M 178.89 48.44 C 178.89 49.23 178.94 50.02 179.03 50.8 C 179.1 51.4 179.21 51.99 179.36 52.57 C 179.51 53.12 179.71 53.65 179.95 54.17 C 180.14 54.58 180.38 54.97 180.65 55.33 C 180.92 55.67 181.22 55.98 181.55 56.25 C 181.87 56.52 182.22 56.74 182.6 56.91 C 183.01 57.11 183.45 57.25 183.9 57.34 C 184.48 57.46 185.06 57.52 185.65 57.52 C 186.24 57.52 186.82 57.46 187.4 57.34 C 187.85 57.25 188.29 57.11 188.7 56.91 C 189.08 56.74 189.43 56.52 189.76 56.26 C 190.09 55.99 190.39 55.68 190.66 55.34 C 190.94 54.97 191.18 54.58 191.37 54.17 C 191.62 53.64 191.82 53.1 191.97 52.54 C 192.12 51.96 192.23 51.38 192.3 50.78 C 192.39 50.01 192.43 49.22 192.43 48.44 C 192.43 47.66 192.38 46.87 192.29 46.1 C 192.23 45.51 192.11 44.92 191.96 44.35 C 191.81 43.8 191.61 43.27 191.37 42.76 C 191.18 42.35 190.94 41.97 190.66 41.61 C 190.4 41.28 190.1 40.97 189.77 40.71 C 189.44 40.45 189.09 40.23 188.71 40.06 C 188.29 39.86 187.84 39.72 187.39 39.63 C 186.8 39.51 186.2 39.45 185.6 39.45 C 185.01 39.45 184.42 39.51 183.84 39.62 C 183.39 39.71 182.95 39.85 182.54 40.05 C 182.17 40.22 181.82 40.43 181.5 40.69 C 181.17 40.95 180.88 41.24 180.63 41.57 C 180.35 41.93 180.11 42.32 179.92 42.73 C 179.68 43.25 179.48 43.8 179.34 44.36 C 179.19 44.93 179.08 45.52 179.02 46.1 C 178.93 46.88 178.89 47.66 178.89 48.44 Z  M 176.89 48.44 C 176.89 49.3 176.94 50.17 177.04 51.03 C 177.12 51.73 177.25 52.41 177.43 53.09 C 177.61 53.75 177.85 54.4 178.14 55.02 C 178.39 55.56 178.7 56.07 179.06 56.54 C 179.42 57.01 179.83 57.44 180.29 57.81 C 180.74 58.17 181.23 58.48 181.75 58.72 C 182.31 58.99 182.9 59.18 183.51 59.3 C 184.21 59.44 184.93 59.52 185.65 59.52 C 186.37 59.52 187.08 59.44 187.79 59.3 C 188.4 59.18 188.99 58.99 189.55 58.73 C 190.07 58.48 190.56 58.18 191.01 57.82 C 191.47 57.45 191.88 57.03 192.24 56.56 C 192.61 56.08 192.93 55.56 193.18 55.02 C 193.48 54.38 193.72 53.73 193.9 53.05 C 194.08 52.38 194.2 51.7 194.28 51.01 C 194.38 50.16 194.43 49.3 194.43 48.44 C 194.43 47.58 194.38 46.72 194.28 45.87 C 194.2 45.18 194.07 44.5 193.89 43.83 C 193.71 43.17 193.47 42.52 193.18 41.9 C 192.92 41.36 192.61 40.85 192.24 40.38 C 191.88 39.92 191.47 39.51 191.01 39.14 C 190.56 38.78 190.07 38.48 189.55 38.24 C 188.98 37.98 188.38 37.79 187.77 37.66 C 187.06 37.52 186.33 37.45 185.6 37.45 C 184.88 37.45 184.16 37.52 183.45 37.66 C 182.85 37.78 182.26 37.97 181.7 38.23 C 181.18 38.47 180.7 38.77 180.25 39.12 C 179.8 39.48 179.4 39.89 179.05 40.35 C 178.68 40.82 178.36 41.34 178.11 41.88 C 177.81 42.52 177.58 43.18 177.4 43.87 C 177.23 44.53 177.11 45.2 177.03 45.88 C 176.94 46.73 176.89 47.58 176.89 48.44 Z  M 210.71 37.01 C 210.81 36.91 210.91 36.82 211.02 36.73 C 211.67 36.15 212.4 35.67 213.18 35.29 C 213.96 34.91 214.78 34.63 215.62 34.45 C 216.54 34.25 217.48 34.15 218.42 34.15 C 219.29 34.15 220.16 34.21 221.02 34.34 C 221.71 34.44 222.39 34.61 223.05 34.84 C 223.64 35.05 224.2 35.31 224.74 35.63 C 225.23 35.92 225.68 36.27 226.1 36.66 C 226.55 37.09 226.94 37.58 227.26 38.12 C 227.62 38.71 227.91 39.35 228.12 40.02 C 228.33 40.66 228.48 41.32 228.58 42 C 228.69 42.84 228.75 43.69 228.75 44.55 L 228.75 62.3 L 222.86 62.3 L 222.86 44.69 C 222.86 44.2 222.83 43.72 222.76 43.24 C 222.72 42.89 222.64 42.55 222.54 42.21 C 222.44 41.9 222.31 41.6 222.15 41.31 C 222.03 41.08 221.87 40.87 221.7 40.68 C 221.52 40.49 221.33 40.33 221.11 40.19 C 220.85 40.03 220.58 39.89 220.29 39.79 C 219.98 39.68 219.65 39.6 219.33 39.55 C 218.87 39.49 218.41 39.45 217.95 39.45 C 217.31 39.45 216.66 39.51 216.02 39.61 C 215.56 39.69 215.1 39.82 214.66 39.99 C 214.29 40.14 213.93 40.33 213.6 40.56 C 213.31 40.77 213.04 41.01 212.8 41.28 C 212.54 41.59 212.32 41.93 212.15 42.29 C 211.9 42.82 211.71 43.37 211.57 43.93 C 211.44 44.46 211.34 45.01 211.29 45.56 C 211.21 46.31 211.17 47.07 211.17 47.83 L 211.17 62.3 L 205.28 62.3 L 205.28 34.62 L 210.28 34.62 L 210.71 37.01 Z  M 226.75 60.3 L 224.86 60.3 L 224.86 44.69 C 224.86 44.12 224.82 43.55 224.75 42.98 C 224.69 42.52 224.59 42.06 224.45 41.62 C 224.31 41.17 224.13 40.75 223.9 40.34 C 223.7 39.97 223.45 39.63 223.16 39.32 C 222.87 39.01 222.55 38.73 222.19 38.5 C 221.8 38.26 221.38 38.06 220.95 37.9 C 220.52 37.75 220.07 37.64 219.62 37.58 C 219.07 37.49 218.51 37.45 217.95 37.45 C 217.2 37.45 216.44 37.52 215.69 37.64 C 215.09 37.74 214.49 37.91 213.92 38.13 C 213.41 38.34 212.91 38.6 212.46 38.92 C 212.02 39.23 211.63 39.58 211.29 39.98 C 210.91 40.42 210.59 40.91 210.34 41.44 C 210.04 42.08 209.8 42.76 209.63 43.46 C 209.47 44.08 209.36 44.71 209.3 45.35 C 209.21 46.17 209.17 47 209.17 47.83 L 209.17 60.3 L 207.28 60.3 L 207.28 36.62 L 208.61 36.62 L 209.24 40.13 L 210.27 40.13 C 210.61 40.13 210.93 39.96 211.11 39.67 C 211.45 39.13 211.86 38.65 212.34 38.23 C 212.86 37.77 213.43 37.39 214.05 37.09 C 214.69 36.78 215.36 36.55 216.05 36.4 C 216.83 36.23 217.62 36.15 218.42 36.15 C 219.19 36.15 219.96 36.21 220.72 36.32 C 221.29 36.4 221.85 36.54 222.39 36.73 C 222.85 36.89 223.29 37.1 223.71 37.35 C 224.07 37.56 224.41 37.82 224.72 38.11 C 225.04 38.42 225.32 38.77 225.55 39.15 C 225.83 39.61 226.05 40.11 226.22 40.63 C 226.39 41.16 226.52 41.71 226.59 42.27 C 226.7 43.02 226.75 43.78 226.75 44.55 L 226.75 60.3 Z " fill-rule="evenodd" fill="none"/></g><defs><filter id="1CktybseOAJUsmV7LLFLislMd62hcjRw" x="-200%" y="-200%" width="400%" height="400%" filterUnits="objectBoundingBox" color-interpolation-filters="sRGB"><feGaussianBlur xmlns="http://www.w3.org/2000/svg" in="SourceGraphic" stdDeviation="0.8587218125678057"/><feOffset xmlns="http://www.w3.org/2000/svg" dx="1" dy="2" result="pf_100_offsetBlur"/><feFlood xmlns="http://www.w3.org/2000/svg" flood-color="#000000" flood-opacity="0.65"/><feComposite xmlns="http://www.w3.org/2000/svg" in2="pf_100_offsetBlur" operator="in" result="pf_100_dropShadow"/><feBlend xmlns="http://www.w3.org/2000/svg" in="SourceGraphic" in2="pf_100_dropShadow" mode="normal"/></filter></defs></g></g><defs><filter id="Ya18iig3uBIsR2GYP0x5dQoP3ddWKM9Y" x="-200%" y="-200%" width="400%" height="400%" filterUnits="objectBoundingBox" color-interpolation-filters="sRGB"><feGaussianBlur xmlns="http://www.w3.org/2000/svg" in="SourceGraphic" stdDeviation="2.146804531419514"/><feOffset xmlns="http://www.w3.org/2000/svg" dx="1" dy="1" result="pf_100_offsetBlur"/><feFlood xmlns="http://www.w3.org/2000/svg" flood-color="#000000" flood-opacity="0.65"/><feComposite xmlns="http://www.w3.org/2000/svg" in2="pf_100_offsetBlur" operator="in" result="pf_100_dropShadow"/><feBlend xmlns="http://www.w3.org/2000/svg" in="SourceGraphic" in2="pf_100_dropShadow" mode="normal"/></filter></defs><g filter="url(#Ya18iig3uBIsR2GYP0x5dQoP3ddWKM9Y)"><g transform="matrix(1,0,0,1,25,20.693)"><text transform="matrix(1,0,0,1,0,42.548)" style="font-family:'Arial';font-weight:700;font-size:47px;font-style:normal;fill:#36bd53;stroke:none;">Drum On</text></g></g></g></svg>