<?xml version="1.0" standalone="no"?><!-- Generator: Gravit.io --><svg xmlns="http://www.w3.org/2000/svg" xmlns:xlink="http://www.w3.org/1999/xlink" style="isolation:isolate" viewBox="0 0 60.308 52.052" width="60.308" height="52.052"><defs><clipPath id="_clipPath_KbaUyPb8Riw429zgX8h4czFePhoCeXnd"><rect width="60.308" height="52.052"/></clipPath></defs><g clip-path="url(#_clipPath_KbaUyPb8Riw429zgX8h4czFePhoCeXnd)"><rect width="60.308" height="52.052" style="fill:rgb(36,33,33)" fill-opacity="0.5"/><g><path d=" M 39.749 13.674 L 58.938 13.674 L 58.938 27.38 L 39.749 27.38 L 39.749 13.674 Z " fill="rgb(54,189,83)"/><path d=" M 39.749 16.415 L 58.938 16.415 L 58.938 19.156 L 39.749 19.156 L 39.749 16.415 Z " fill="rgb(43,153,67)"/><path d=" M 1.371 13.674 L 20.56 13.674 L 20.56 27.38 L 1.371 27.38 L 1.371 13.674 Z " fill="rgb(54,189,83)"/><path d=" M 1.371 16.415 L 20.56 16.415 L 20.56 19.156 L 1.371 19.156 L 1.371 16.415 Z " fill="rgb(43,153,67)"/><path d=" M 60.308 13.674 L 60.308 16.415 L 54.826 16.415 L 54.826 21.898 L 52.084 21.898 L 52.084 16.415 L 46.602 16.415 L 46.602 21.898 L 43.861 21.898 L 43.861 16.415 L 38.378 16.415 L 38.378 13.674 L 60.308 13.674 Z  M 38.378 28.751 L 60.308 28.751 L 60.308 26.01 L 38.378 26.01 L 38.378 28.751 Z  M 0 16.415 L 5.483 16.415 L 5.483 21.898 L 8.224 21.898 L 8.224 16.415 L 13.706 16.415 L 13.706 21.898 L 16.448 21.898 L 16.448 16.415 L 21.93 16.415 L 21.93 13.674 L 0 13.674 L 0 16.415 Z  M 0 28.751 L 21.93 28.751 L 21.93 26.01 L 0 26.01 L 0 28.751 Z " fill="rgb(55,71,79)"/><path d=" M 42.49 52.052 C 42.216 52.052 41.805 51.912 41.53 51.641 L 30.154 41.498 L 18.778 51.641 C 18.23 52.192 17.407 52.052 16.859 51.506 C 16.308 50.954 16.448 50.136 16.993 49.583 L 30.294 37.8 L 43.588 49.583 C 44.133 50.136 44.273 50.954 43.721 51.506 C 43.175 51.912 42.902 52.052 42.49 52.052 Z  M 50.714 28.751 L 47.972 28.751 L 47.972 52.052 L 50.714 52.052 L 50.714 28.751 Z  M 12.336 28.751 L 9.594 28.751 L 9.594 52.052 L 12.336 52.052 L 12.336 28.751 Z " fill="rgb(197,202,233)"/><path d=" M 50.714 13.674 L 47.972 13.674 L 47.972 4.079 L 50.714 4.079 L 50.714 13.674 Z  M 12.336 4.079 L 9.594 4.079 L 9.594 13.674 L 12.336 13.674 L 12.336 4.079 Z " fill="rgb(159,168,218)"/><path d=" M 30.154 19.156 C 21.105 19.156 13.706 26.555 13.706 35.604 C 13.706 44.653 21.105 52.052 30.154 52.052 C 39.203 52.052 46.602 44.653 46.602 35.604 C 46.602 26.555 39.203 19.156 30.154 19.156 Z " fill="rgb(38,50,56)"/><path d=" M 30.154 21.898 C 22.616 21.898 16.448 28.066 16.448 35.604 C 16.448 43.143 22.616 49.311 30.154 49.311 C 37.693 49.311 43.861 43.143 43.861 35.604 C 43.861 28.066 37.693 21.898 30.154 21.898 Z " fill="rgb(84,110,122)"/><path d=" M 56.196 9.562 L 42.49 9.562 C 41.733 9.562 41.119 8.948 41.119 8.191 C 41.119 7.506 41.805 6.821 42.49 6.821 L 56.196 6.821 C 56.882 6.821 57.567 7.366 57.567 8.191 C 57.567 9.016 56.882 9.562 56.196 9.562 Z  M 56.196 2.709 L 52.084 2.709 C 52.084 2.709 50.854 1.338 49.343 1.338 C 47.833 1.338 46.602 2.709 46.602 2.709 L 42.49 2.709 C 41.805 2.709 41.119 3.394 41.119 4.079 C 41.119 4.765 41.805 5.45 42.49 5.45 L 56.196 5.45 C 56.882 5.45 57.567 4.765 57.567 4.079 C 57.567 3.394 56.882 2.709 56.196 2.709 Z  M 18.364 5.59 L 13.567 3.667 C 13.434 3.394 12.881 1.885 11.511 1.478 C 10.14 0.926 8.636 1.611 8.497 1.751 L 4.66 0.105 C 3.975 -0.174 3.155 0.105 2.882 0.924 C 2.603 1.61 2.882 2.435 3.701 2.707 L 17.407 8.19 C 17.547 8.19 17.681 8.33 17.96 8.33 C 18.505 8.33 19.051 8.05 19.19 7.505 C 19.33 6.68 19.051 5.86 18.365 5.589 L 18.364 5.59 Z " fill="rgb(255,193,7)"/></g></g></svg>