<?xml version="1.0" standalone="no"?><!-- Generator: Gravit.io --><svg xmlns="http://www.w3.org/2000/svg" xmlns:xlink="http://www.w3.org/1999/xlink" style="isolation:isolate" viewBox="0 0 79.125 78.981" width="79.125" height="78.981"><defs><clipPath id="_clipPath_vySv1v8Qb8ay3sZq6j7mThjobnJQAHir"><rect width="79.125" height="78.981"/></clipPath></defs><g clip-path="url(#_clipPath_vySv1v8Qb8ay3sZq6j7mThjobnJQAHir)"><rect x="0" y="0" width="79.125" height="78.981" transform="matrix(1,0,0,1,0,0)" fill="none"/><g><path d=" M 3.869 33.489 L 75.256 33.489 L 75.256 71.061 L 3.869 71.061 L 3.869 33.489 Z " fill="rgb(162,162,162)"/><path d=" M 74.316 34.428 L 74.316 70.121 L 4.809 70.121 L 4.809 34.428 L 74.316 34.428 Z  M 76.195 32.55 L 2.93 32.55 L 2.93 72 L 76.195 72 L 76.195 32.55 Z " fill="rgb(46,46,46)"/><path d=" M 40.502 32.55 C 40.502 31.881 40.535 31.252 40.598 30.662 C 42.26 15.144 64.923 25.71 64.923 8.128" fill="none" vector-effect="non-scaling-stroke" stroke-width="2" stroke="rgb(46,46,46)" stroke-linejoin="miter" stroke-linecap="round" stroke-miterlimit="10"/><path d=" M 25.473 60.729 L 53.652 60.729 L 53.652 66.364 L 25.473 66.364 L 25.473 60.729 Z  M 55.53 60.729 L 61.166 60.729 L 61.166 66.364 L 55.53 66.364 L 55.53 60.729 Z  M 63.045 60.729 L 68.681 60.729 L 68.681 66.364 L 63.045 66.364 L 63.045 60.729 Z  M 17.959 60.729 L 23.595 60.729 L 23.595 66.364 L 17.959 66.364 L 17.959 60.729 Z  M 10.444 60.729 L 16.08 60.729 L 16.08 66.364 L 10.444 66.364 L 10.444 60.729 Z  M 55.53 53.214 L 68.681 53.214 L 68.681 58.85 L 55.53 58.85 L 55.53 53.214 Z  M 48.016 53.214 L 53.652 53.214 L 53.652 58.85 L 48.016 58.85 L 48.016 53.214 Z  M 40.502 53.214 L 46.138 53.214 L 46.138 58.85 L 40.502 58.85 L 40.502 53.214 Z  M 32.987 53.214 L 38.623 53.214 L 38.623 58.85 L 32.987 58.85 L 32.987 53.214 Z  M 25.473 53.214 L 31.109 53.214 L 31.109 58.85 L 25.473 58.85 L 25.473 53.214 Z  M 10.444 53.214 L 23.595 53.214 L 23.595 58.85 L 10.444 58.85 L 10.444 53.214 Z  M 10.444 45.7 L 17.959 45.7 L 17.959 51.336 L 10.444 51.336 L 10.444 45.7 Z  M 27.352 45.7 L 32.987 45.7 L 32.987 51.336 L 27.352 51.336 L 27.352 45.7 Z  M 34.866 45.7 L 40.502 45.7 L 40.502 51.336 L 34.866 51.336 L 34.866 45.7 Z  M 42.38 45.7 L 48.016 45.7 L 48.016 51.336 L 42.38 51.336 L 42.38 45.7 Z  M 49.895 45.7 L 55.53 45.7 L 55.53 51.336 L 49.895 51.336 L 49.895 45.7 Z  M 57.409 45.7 L 68.681 45.7 L 68.681 51.336 L 57.409 51.336 L 57.409 45.7 Z  M 63.045 38.186 L 68.681 38.186 L 68.681 43.821 L 63.045 43.821 L 63.045 38.186 Z  M 55.53 38.186 L 61.166 38.186 L 61.166 43.821 L 55.53 43.821 L 55.53 38.186 Z  M 48.016 38.186 L 53.652 38.186 L 53.652 43.821 L 48.016 43.821 L 48.016 38.186 Z  M 40.502 38.186 L 46.138 38.186 L 46.138 43.821 L 40.502 43.821 L 40.502 38.186 Z  M 32.987 38.186 L 38.623 38.186 L 38.623 43.821 L 32.987 43.821 L 32.987 38.186 Z  M 25.473 38.186 L 31.109 38.186 L 31.109 43.821 L 25.473 43.821 L 25.473 38.186 Z  M 17.959 38.186 L 23.595 38.186 L 23.595 43.821 L 17.959 43.821 L 17.959 38.186 Z  M 10.444 38.186 L 16.08 38.186 L 16.08 43.821 L 10.444 43.821 L 10.444 38.186 Z  M 19.837 45.7 L 25.473 45.7 L 25.473 51.336 L 19.837 51.336 L 19.837 45.7 Z " fill="rgb(255,255,255)"/></g></g></svg>